<?xml version="1.0" encoding="UTF-8"?>
<svg id="Livello_1" xmlns="http://www.w3.org/2000/svg" version="1.1" viewBox="0 0 180 180">
  <!-- Generator: Adobe Illustrator 29.8.2, SVG Export Plug-In . SVG Version: 2.1.1 Build 3)  -->
  <defs>
    <style>
      .st0 {
        fill: #036f9a;
      }

      .st1 {
        fill: #fff;
      }
    </style>
  </defs>
  <rect class="st1" width="180" height="180"/>
  <path class="st0" d="M109.49,22.94h27.45v27.2h-53.15c-1.84,0-3.57.36-5.2,1.07-1.63.71-3.07,1.69-4.33,2.94-1.25,1.25-2.24,2.7-2.94,4.33-.71,1.63-1.07,3.36-1.07,5.2s.36,3.74,1.07,5.45,1.69,3.2,2.94,4.45,2.7,2.24,4.33,2.94c1.63.71,3.36,1.07,5.2,1.07h32.72v27.2h-32.72c-1.84,0-3.57.36-5.2,1.07s-3.07,1.69-4.33,2.94-2.24,2.7-2.94,4.33c-.71,1.63-1.07,3.36-1.07,5.2s.36,3.74,1.07,5.45,1.69,3.2,2.94,4.45,2.7,2.24,4.33,2.94c1.63.71,3.36,1.07,5.2,1.07h53.15v27.2h-27.45v20.56h-23.07v-20.56h-2.63c-5.68,0-10.99-1.07-15.92-3.2-4.93-2.13-9.23-5.06-12.91-8.78-3.68-3.72-6.58-8.07-8.71-13.04-2.13-4.97-3.2-10.34-3.2-16.11,0-5.01.88-9.86,2.63-14.54,1.75-4.68,4.39-8.9,7.9-12.66-3.51-3.76-6.14-7.98-7.9-12.66-1.75-4.68-2.63-9.61-2.63-14.79,0-5.6,1.07-10.89,3.2-15.86,2.13-4.97,5.03-9.3,8.71-12.97,3.68-3.68,7.98-6.58,12.91-8.71,4.93-2.13,10.24-3.2,15.92-3.2h2.63V0h23.07v22.94h0Z"/>
</svg>