<?xml version="1.0" encoding="UTF-8"?>
<svg id="Livello_1" xmlns="http://www.w3.org/2000/svg" version="1.1" viewBox="0 0 180 180">
  <!-- Generator: Adobe Illustrator 29.8.2, SVG Export Plug-In . SVG Version: 2.1.1 Build 3)  -->
  <defs>
    <style>
      .st0 {
        fill: #036f9a;
      }

      .st1 {
        fill: #fff;
      }
    </style>
  </defs>
  <rect class="st1" width="180" height="180"/>
  <path class="st0" d="M109.19,23.99h27.02v26.78h-52.32c-1.81,0-3.52.35-5.12,1.05-1.6.7-3.02,1.67-4.26,2.9-1.23,1.23-2.2,2.65-2.9,4.26-.7,1.6-1.05,3.31-1.05,5.12s.35,3.68,1.05,5.37,1.67,3.15,2.9,4.38,2.65,2.2,4.26,2.9c1.6.7,3.31,1.05,5.12,1.05h32.2v26.78h-32.2c-1.81,0-3.52.35-5.12,1.05s-3.02,1.67-4.26,2.9-2.2,2.65-2.9,4.26c-.7,1.6-1.05,3.31-1.05,5.12s.35,3.68,1.05,5.37,1.67,3.15,2.9,4.38,2.65,2.2,4.26,2.9c1.6.7,3.31,1.05,5.12,1.05h52.32v26.78h-27.02v20.24h-22.71v-20.24h-2.59c-5.59,0-10.82-1.05-15.67-3.15-4.86-2.1-9.09-4.98-12.71-8.64-3.62-3.66-6.48-7.94-8.58-12.83-2.1-4.89-3.15-10.18-3.15-15.86,0-4.94.86-9.7,2.59-14.31,1.73-4.61,4.32-8.76,7.78-12.46-3.45-3.7-6.05-7.86-7.78-12.46-1.73-4.61-2.59-9.46-2.59-14.56,0-5.51,1.05-10.72,3.15-15.61,2.1-4.89,4.95-9.15,8.58-12.77,3.62-3.62,7.86-6.48,12.71-8.58,4.85-2.1,10.08-3.15,15.67-3.15h2.59V1.41h22.71v22.58h0Z"/>
</svg>